<?xml version="1.0" encoding="utf-8"?>
<!-- Generator: Adobe Illustrator 15.1.0, SVG Export Plug-In . SVG Version: 6.00 Build 0)  -->
<!DOCTYPE svg PUBLIC "-//W3C//DTD SVG 1.1//EN" "http://www.w3.org/Graphics/SVG/1.1/DTD/svg11.dtd">
<svg version="1.1" xmlns="http://www.w3.org/2000/svg" xmlns:xlink="http://www.w3.org/1999/xlink" x="0px" y="0px" width="1000px"
	 height="1000px" viewBox="0 0 1000 1000" enable-background="new 0 0 1000 1000" xml:space="preserve">
<g id="Layer_1">
</g>
<g id="Layer_2">
	<g>
		<path fill="#E67C22" d="M905.84,500c0,224.14-181.7,405.84-405.84,405.84c-16.61,0-32.99-1-49.07-2.95
			C249.93,878.68,94.16,707.53,94.16,500c0-224.14,181.7-405.84,405.84-405.84c199.01,0,364.57,143.25,399.18,332.26
			C903.56,450.28,905.84,474.87,905.84,500z"/>
		<path opacity="0.25" fill="#E67C22" d="M905.84,500c0,224.14-181.7,405.84-405.84,405.84c-16.61,0-32.99-1-49.07-2.95
			L270.28,722.24l-6.29-6.29c-3.39-4.61-5.37-10.22-5.37-16.26c0-15.78,13.52-28.57,30.21-28.57h88.45
			c34.34,0,62.27-27.93,62.27-62.271c0-34.34-27.93-62.27-62.27-62.27v-0.01c-65.79,0-119.31-53.521-119.31-119.3
			c0-65.79,53.52-119.32,119.32-119.32c42.38,0,81.96,22.8,103.25,59.49c0.69,1.22,1.3,2.45,1.81,3.73l7.47,17.88h-63.37
			c-11.72-15-29.87-24.06-49.16-24.06c-34.34,0-62.27,27.95-62.27,62.28c0,17.16,6.98,32.73,18.25,44
			c11.27,11.28,26.86,18.26,44.02,18.26c25.05,0,48.33,7.76,67.55,21.02v-92.97h56.891l0.149,0.35l58.23,139.41V336.47h0.01v-28.52
			h94.01c11.14-21.46,34.47-36.22,61.45-36.22c16.91,0,32.38,5.8,44.32,15.41l10.27,10.27l129.01,129.01
			C903.56,450.28,905.84,474.87,905.84,500z"/>
		<g>
			<g>
				<path fill="#FFFFFF" d="M496.6,608.85c0,65.79-53.52,119.311-119.32,119.311H286.5l2.34-57.04h88.44
					c34.34,0,62.27-27.93,62.27-62.271c0-34.34-27.93-62.27-62.27-62.27v-0.01c-65.79,0-119.31-53.521-119.31-119.3
					c0-65.79,53.52-119.32,119.32-119.32c42.38,0,81.96,22.8,103.25,59.49c0.69,1.22,1.3,2.45,1.81,3.73l7.47,17.88h-63.37
					c-11.72-15-29.87-24.06-49.16-24.06c-34.34,0-62.27,27.95-62.27,62.28c0,17.16,6.98,32.73,18.25,44
					c11.27,11.28,26.86,18.26,44.02,18.26c25.05,0,48.33,7.76,67.55,21.02c29.18,20.11,49,52.87,51.48,90.3
					C496.51,603.49,496.6,606.16,496.6,608.85z"/>
				<path fill="#FFFFFF" d="M617.15,336.47V699.64c0,13.591-9.591,25.301-22.92,27.971c-1.87,0.37-3.761,0.55-5.61,0.55
					c-11.32,0-21.811-6.76-26.311-17.521L501.88,565.94L496.6,553.3l-51.76-123.94v-11.78h56.891l0.149,0.35l58.23,139.41V336.47
					H617.15z"/>
				<path fill="#FFFFFF" d="M319.04,699.69c0,14.979-12.17,27.27-27.68,28.47c-0.83,0.08-1.68,0.109-2.53,0.109
					c-7,0-13.44-2.25-18.55-6.029c-2.42-1.771-4.55-3.9-6.29-6.29c-3.39-4.61-5.37-10.22-5.37-16.26
					c0-15.78,13.52-28.57,30.21-28.57h0.01C305.53,671.13,319.04,683.91,319.04,699.69z"/>
				<rect x="560.12" y="307.95" fill="#FFFFFF" width="155.46" height="57.05"/>
				<rect x="444.84" y="417.58" fill="#FFFFFF" width="51.76" height="183.27"/>
			</g>
			<g>
				<g>
					<path fill="#FFFFFF" d="M784.03,336.47c0,35.76-30.65,64.75-68.45,64.75c-26.98,0-50.311-14.76-61.45-36.22
						c-4.479-8.6-6.99-18.29-6.99-28.53c0-10.24,2.511-19.92,6.99-28.52c11.14-21.46,34.47-36.22,61.45-36.22
						c16.91,0,32.38,5.8,44.32,15.41c3.81,3.05,7.25,6.5,10.27,10.27C778.87,308.26,784.03,321.8,784.03,336.47z"/>
				</g>
				<g>
					<circle fill="#E67C22" cx="715.583" cy="303.214" r="11.476"/>
					<g>
						<path fill="#E67C22" d="M706.205,332.417c0,15.372,0,30.746,0,46.118c0,11.202,18.758,11.202,18.758,0
							c0-15.372,0-30.746,0-46.118C724.963,321.213,706.205,321.213,706.205,332.417L706.205,332.417z"/>
					</g>
				</g>
			</g>
		</g>
	</g>
</g>
</svg>
