<?xml version="1.0" encoding="utf-8"?>
<!-- Generator: Adobe Illustrator 15.1.0, SVG Export Plug-In . SVG Version: 6.00 Build 0)  -->
<!DOCTYPE svg PUBLIC "-//W3C//DTD SVG 1.1//EN" "http://www.w3.org/Graphics/SVG/1.1/DTD/svg11.dtd">
<svg version="1.1" id="Layer_2" xmlns="http://www.w3.org/2000/svg" xmlns:xlink="http://www.w3.org/1999/xlink" x="0px" y="0px"
	 width="1237px" height="309.112px" viewBox="0 0 1237 309.112" enable-background="new 0 0 1237 309.112" xml:space="preserve">
<g>
	<path fill="#E67C22" d="M253.274,154.319c0,53.608-43.457,97.065-97.065,97.065c-3.972,0-7.891-0.24-11.735-0.705
		c-48.073-5.791-85.329-46.726-85.329-96.36c0-53.607,43.457-97.064,97.064-97.064c47.598,0,87.194,34.262,95.473,79.467
		C252.728,142.429,253.274,148.309,253.274,154.319z"/>
	<path opacity="0.25" fill="#E67C22" d="M253.274,154.319c0,53.608-43.457,97.065-97.065,97.065c-3.972,0-7.891-0.24-11.735-0.705
		l-43.206-43.207l-1.505-1.505c-0.81-1.102-1.284-2.443-1.284-3.888c0-3.774,3.233-6.833,7.226-6.833h21.154
		c8.213,0,14.893-6.681,14.893-14.894s-6.68-14.893-14.893-14.893v-0.003c-15.734,0-28.535-12.801-28.535-28.533
		c0-15.734,12.801-28.538,28.537-28.538c10.137,0,19.603,5.454,24.694,14.229c0.166,0.292,0.313,0.586,0.434,0.892l1.785,4.277
		h-15.154c-2.804-3.588-7.145-5.755-11.759-5.755c-8.213,0-14.893,6.685-14.893,14.896c0,4.104,1.669,7.828,4.363,10.523
		c2.697,2.698,6.426,4.367,10.529,4.367c5.991,0,11.561,1.856,16.156,5.027v-22.235h13.606l0.035,0.084l13.928,33.342v-52.824h0.003
		v-6.822h22.483c2.664-5.132,8.245-8.662,14.697-8.662c4.045,0,7.744,1.388,10.601,3.686l2.455,2.456l30.856,30.855
		C252.728,142.429,253.274,148.309,253.274,154.319z"/>
	<g>
		<g>
			<path fill="#FFFFFF" d="M155.396,180.354c0,15.734-12.8,28.535-28.537,28.535h-21.712l0.56-13.642h21.152
				c8.213,0,14.893-6.681,14.893-14.894s-6.68-14.893-14.893-14.893v-0.003c-15.734,0-28.535-12.801-28.535-28.533
				c0-15.734,12.801-28.538,28.537-28.538c10.137,0,19.603,5.454,24.694,14.229c0.166,0.292,0.313,0.586,0.434,0.892l1.785,4.277
				h-15.154c-2.804-3.588-7.145-5.755-11.759-5.755c-8.213,0-14.893,6.685-14.893,14.896c0,4.104,1.669,7.828,4.363,10.523
				c2.697,2.698,6.426,4.367,10.529,4.367c5.991,0,11.561,1.856,16.156,5.027c6.979,4.81,11.72,12.645,12.312,21.598
				C155.375,179.071,155.396,179.711,155.396,180.354z"/>
			<path fill="#FFFFFF" d="M184.229,115.209v86.858c0,3.251-2.294,6.052-5.482,6.69c-0.446,0.088-0.899,0.131-1.342,0.131
				c-2.707,0-5.217-1.617-6.293-4.19l-14.453-34.607l-1.263-3.022l-12.379-29.644v-2.817h13.606l0.035,0.084l13.928,33.342v-52.824
				H184.229z"/>
			<path fill="#FFFFFF" d="M112.93,202.08c0,3.582-2.911,6.522-6.62,6.809c-0.2,0.02-0.402,0.026-0.605,0.026
				c-1.674,0-3.216-0.539-4.437-1.442c-0.58-0.423-1.089-0.932-1.505-1.505c-0.81-1.102-1.284-2.443-1.284-3.888
				c0-3.774,3.233-6.833,7.226-6.833h0.002C109.698,195.249,112.93,198.306,112.93,202.08z"/>
			<rect x="170.589" y="108.387" fill="#FFFFFF" width="37.181" height="13.646"/>
			<rect x="143.017" y="134.607" fill="#FFFFFF" width="12.379" height="43.833"/>
		</g>
		<g>
			<g>
				<path fill="#FFFFFF" d="M224.141,115.209c0,8.552-7.331,15.485-16.371,15.485c-6.452,0-12.033-3.53-14.697-8.662
					c-1.071-2.058-1.672-4.375-1.672-6.823c0-2.449,0.601-4.765,1.672-6.822c2.664-5.132,8.245-8.662,14.697-8.662
					c4.045,0,7.744,1.388,10.601,3.686c0.91,0.729,1.733,1.555,2.455,2.456C222.906,108.461,224.141,111.7,224.141,115.209z"/>
			</g>
			<g>
				<circle fill="#E67C22" cx="207.77" cy="107.254" r="2.744"/>
				<g>
					<path fill="#E67C22" d="M205.527,114.239c0,3.677,0,7.353,0,11.03c0,2.679,4.486,2.679,4.486,0c0-3.678,0-7.354,0-11.03
						C210.014,111.56,205.527,111.56,205.527,114.239L205.527,114.239z"/>
				</g>
			</g>
		</g>
	</g>
</g>
<g>
	<g>
		<path fill="#E67C22" d="M326.115,156.988c-3.048-1.152-5.695-2.607-7.941-4.365c-2.248-1.761-4.017-3.84-5.306-6.243
			c-1.288-2.403-1.934-5.188-1.934-8.353c0-3.204,0.684-6.135,2.05-8.792c1.369-2.657,3.196-4.943,5.48-6.858
			c2.287-1.914,4.905-3.39,7.856-4.425c2.95-1.035,6.027-1.554,9.23-1.554c2.306,0,4.572,0.234,6.8,0.703
			c2.228,0.47,4.317,1.163,6.272,2.081c1.952,0.918,3.73,2.062,5.333,3.429c1.602,1.368,2.931,2.951,3.986,4.748
			c0.352,0.548,0.558,1.104,0.615,1.671s0.019,1.123-0.118,1.67c-0.137,0.548-0.343,1.056-0.615,1.523
			c-0.273,0.47-0.585,0.88-0.938,1.231c-0.39,0.391-0.87,0.714-1.436,0.967c-0.567,0.256-1.174,0.411-1.816,0.47
			c-0.646,0.059-1.319,0.01-2.023-0.146c-0.703-0.156-1.368-0.47-1.993-0.938c-1.094-0.976-2.129-1.826-3.106-2.55
			c-0.978-0.723-2.003-1.318-3.077-1.787s-2.227-0.82-3.457-1.056c-1.23-0.234-2.649-0.351-4.25-0.351
			c-1.76,0-3.429,0.225-5.012,0.673c-1.583,0.45-2.971,1.104-4.163,1.964c-1.192,0.86-2.138,1.896-2.842,3.106
			c-0.703,1.212-1.055,2.578-1.055,4.104c0,1.759,0.458,3.204,1.376,4.337c0.918,1.135,2.149,2.081,3.693,2.844
			c1.545,0.761,3.342,1.397,5.394,1.904c2.051,0.509,4.229,1.016,6.534,1.523c2.735,0.743,5.422,1.643,8.061,2.696
			c2.637,1.056,4.981,2.403,7.033,4.044c2.051,1.643,3.702,3.626,4.953,5.95c1.25,2.325,1.877,5.129,1.877,8.411
			c0,3.321-0.675,6.39-2.023,9.203c-1.348,2.812-3.204,5.246-5.568,7.296c-2.365,2.052-5.139,3.664-8.323,4.838
			c-3.185,1.17-6.594,1.758-10.228,1.758c-2.931,0-5.736-0.383-8.411-1.143c-2.679-0.763-5.13-1.799-7.357-3.107
			c-2.228-1.31-4.18-2.844-5.861-4.602c-1.68-1.758-2.97-3.634-3.868-5.627c-0.469-0.937-0.723-1.826-0.762-2.667
			c-0.04-0.841,0.059-1.602,0.293-2.286c0.234-0.683,0.596-1.28,1.084-1.788c0.489-0.508,1.045-0.938,1.672-1.289
			c1.443-0.78,2.803-0.938,4.072-0.469s2.568,1.544,3.898,3.225c1.641,2.577,3.791,4.57,6.447,5.979
			c2.656,1.406,5.744,2.108,9.261,2.108c1.72,0,3.419-0.233,5.101-0.702c1.679-0.47,3.184-1.163,4.514-2.081
			c1.327-0.919,2.402-2.052,3.223-3.4c0.82-1.347,1.23-2.88,1.23-4.601c0-1.796-0.419-3.283-1.261-4.455
			c-0.84-1.172-1.924-2.139-3.251-2.9c-1.329-0.763-2.824-1.378-4.485-1.846c-1.661-0.47-3.313-0.919-4.953-1.35
			C332.465,159.05,329.162,158.142,326.115,156.988z"/>
		<path fill="#E67C22" d="M419.017,190.78l-0.058,0.059c-0.233,0.195-0.469,0.351-0.703,0.468c-0.079,0-0.155,0.04-0.234,0.118
			h-0.059c-0.664,0.313-1.329,0.489-1.993,0.527h-0.293c-0.353,0-0.684-0.021-0.995-0.059c-0.197-0.038-0.393-0.079-0.588-0.117
			c-0.233-0.038-0.488-0.118-0.762-0.235c-0.234-0.116-0.47-0.234-0.702-0.352c-0.47-0.232-0.881-0.564-1.232-0.995l-0.176-0.177
			c-0.195-0.195-0.371-0.391-0.526-0.586c-0.196-0.312-0.372-0.645-0.528-0.997l-6.565-14.418l-6.506,14.418
			c-0.156,0.313-0.332,0.606-0.526,0.879c-0.197,0.275-0.393,0.528-0.587,0.763c-0.234,0.313-0.508,0.566-0.821,0.763
			c-0.313,0.195-0.644,0.391-0.995,0.586c-0.626,0.274-1.289,0.448-1.993,0.527h-0.88c-0.664-0.038-1.328-0.214-1.992-0.527
			c-0.665-0.273-1.271-0.703-1.817-1.289c-0.431-0.43-0.801-0.998-1.113-1.701l-19.753-43.432c-0.352-0.742-0.528-1.505-0.528-2.287
			c0-0.781,0.126-1.524,0.382-2.227c0.254-0.703,0.644-1.339,1.173-1.906c0.526-0.565,1.163-1.025,1.904-1.377
			c0.742-0.351,1.494-0.527,2.257-0.527c0.762,0,1.493,0.139,2.197,0.41c0.704,0.273,1.327,0.684,1.876,1.23
			c0.546,0.549,0.997,1.192,1.348,1.935l14.479,32.708l5.628-12.779l-6.858-15.18c-0.353-0.742-0.539-1.505-0.557-2.287
			c-0.021-0.781,0.097-1.524,0.351-2.227c0.254-0.703,0.645-1.339,1.173-1.906c0.526-0.565,1.161-1.025,1.904-1.377
			c0.742-0.351,1.495-0.527,2.257-0.527s1.494,0.139,2.198,0.41c0.704,0.273,1.328,0.684,1.875,1.23
			c0.548,0.549,0.997,1.192,1.35,1.935l2.52,5.803l2.578-5.803c0.313-0.742,0.753-1.377,1.319-1.904
			c0.567-0.527,1.192-0.928,1.876-1.202c0.683-0.272,1.416-0.41,2.198-0.41c0.78,0,1.543,0.177,2.285,0.528s1.378,0.811,1.906,1.377
			c0.526,0.566,0.927,1.201,1.201,1.905c0.273,0.704,0.399,1.445,0.381,2.227c-0.021,0.782-0.204,1.544-0.557,2.287l-6.858,15.181
			l5.627,12.72l14.419-32.708c0.663-1.483,1.738-2.52,3.224-3.106c1.484-0.586,2.97-0.546,4.454,0.118
			c0.742,0.352,1.378,0.811,1.906,1.377c0.526,0.566,0.927,1.201,1.201,1.905c0.273,0.704,0.41,1.445,0.41,2.227
			c0,0.782-0.176,1.544-0.526,2.287l-19.696,43.373c-0.351,0.665-0.742,1.23-1.172,1.701
			C419.525,190.369,419.291,190.584,419.017,190.78z"/>
		<path fill="#E67C22" d="M448.029,121.527c0.354-0.8,0.821-1.494,1.408-2.081c0.586-0.586,1.27-1.045,2.052-1.378
			c0.78-0.33,1.62-0.497,2.521-0.497c0.898,0,1.737,0.167,2.52,0.497c0.781,0.333,1.466,0.792,2.051,1.378
			c0.587,0.587,1.057,1.281,1.408,2.081c0.352,0.801,0.526,1.651,0.526,2.55c0,0.899-0.175,1.739-0.526,2.52
			c-0.352,0.783-0.821,1.467-1.408,2.053c-0.585,0.586-1.27,1.045-2.051,1.376c-0.782,0.333-1.621,0.499-2.52,0.499
			c-0.9,0-1.74-0.166-2.521-0.499c-0.782-0.331-1.466-0.79-2.052-1.376c-0.587-0.586-1.055-1.27-1.408-2.053
			c-0.351-0.78-0.526-1.62-0.526-2.52C447.503,123.179,447.679,122.328,448.029,121.527z M459.87,186.149
			c0,1.642-0.556,3.019-1.67,4.131c-1.113,1.115-2.491,1.672-4.132,1.672c-0.783,0-1.535-0.146-2.258-0.44
			c-0.723-0.292-1.348-0.702-1.876-1.231c-0.527-0.526-0.947-1.143-1.26-1.846c-0.313-0.702-0.468-1.464-0.468-2.285v-43.608
			c0-0.821,0.155-1.583,0.468-2.287c0.313-0.703,0.741-1.319,1.29-1.846c0.547-0.527,1.172-0.947,1.876-1.261
			c0.702-0.313,1.465-0.469,2.284-0.469c0.821,0,1.584,0.156,2.287,0.469c0.704,0.313,1.309,0.733,1.816,1.261
			c0.507,0.526,0.908,1.143,1.203,1.846c0.292,0.704,0.438,1.466,0.438,2.287V186.149z"/>
		<path fill="#E67C22" d="M477.688,126.304c0.976-2.304,2.305-4.249,3.986-5.832c1.679-1.582,3.651-2.803,5.919-3.663
			c2.267-0.859,4.708-1.289,7.326-1.289c1.68,0,3.086,0.498,4.221,1.494c1.133,0.997,1.7,2.336,1.7,4.015
			c0,0.782-0.157,1.524-0.47,2.228c-0.313,0.704-0.731,1.319-1.261,1.847c-0.526,0.528-1.151,0.938-1.875,1.23
			c-0.723,0.294-1.495,0.44-2.315,0.44c-1.016,0-1.943,0.186-2.783,0.557c-0.842,0.371-1.572,0.879-2.199,1.524
			c-0.625,0.645-1.113,1.397-1.465,2.257c-0.313,0.702-0.488,1.465-0.528,2.285v0.41v3.049h5.394c1.68,0,3.086,0.547,4.221,1.641
			c1.133,1.095,1.699,2.462,1.699,4.104c0,1.681-0.566,3.087-1.699,4.22c-1.135,1.134-2.541,1.699-4.221,1.699h-5.394v37.454
			c0,0.82-0.156,1.593-0.468,2.315c-0.313,0.724-0.732,1.35-1.261,1.876c-0.527,0.527-1.143,0.947-1.847,1.261
			c-0.701,0.313-1.445,0.469-2.227,0.469c-0.82,0-1.583-0.155-2.285-0.469c-0.704-0.313-1.319-0.733-1.847-1.261
			c-0.528-0.526-0.947-1.152-1.261-1.876c-0.313-0.723-0.47-1.495-0.47-2.315v-37.454h-3.867c-0.82,0-1.583-0.155-2.287-0.469
			c-0.704-0.312-1.319-0.741-1.846-1.289c-0.527-0.548-0.938-1.173-1.231-1.877c-0.293-0.702-0.439-1.464-0.439-2.284
			c0-1.642,0.557-3.009,1.671-4.104c1.114-1.094,2.491-1.641,4.133-1.641h3.867v-3.049v-0.41
			C476.359,130.817,476.828,128.454,477.688,126.304z"/>
		<path fill="#E67C22" d="M523.698,136.855h5.041c1.681,0,3.078,0.547,4.19,1.641c1.115,1.095,1.672,2.462,1.672,4.104
			c0,1.681-0.557,3.087-1.672,4.22c-1.112,1.134-2.51,1.699-4.19,1.699h-5.041v37.689c0,1.641-0.557,3.009-1.67,4.103
			c-1.113,1.095-2.491,1.642-4.132,1.642s-3.029-0.547-4.162-1.642c-1.134-1.094-1.7-2.462-1.7-4.103v-37.689h-4.22
			c-0.819,0-1.582-0.155-2.285-0.469c-0.704-0.312-1.32-0.741-1.847-1.289c-0.527-0.548-0.948-1.173-1.261-1.877
			c-0.313-0.702-0.469-1.464-0.469-2.284c0-1.642,0.565-3.009,1.699-4.104c1.135-1.094,2.521-1.641,4.162-1.641h4.22V122.67
			c0-1.642,0.566-3.008,1.7-4.103c1.133-1.095,2.521-1.641,4.162-1.641s3.019,0.546,4.132,1.641s1.67,2.461,1.67,4.103V136.855z"/>
		<path fill="#E67C22" d="M562.207,172.668l14.535-32.414c0.353-0.742,0.812-1.377,1.378-1.904c0.565-0.527,1.191-0.928,1.876-1.202
			c0.683-0.272,1.407-0.41,2.169-0.41s1.515,0.177,2.257,0.528s1.386,0.811,1.935,1.377c0.547,0.566,0.957,1.201,1.23,1.905
			s0.4,1.445,0.38,2.227c-0.021,0.782-0.205,1.544-0.556,2.287l-29.19,64.006c-0.352,0.741-0.811,1.377-1.378,1.905
			c-0.566,0.527-1.201,0.928-1.904,1.201s-1.445,0.41-2.228,0.41c-0.781,0-1.543-0.175-2.285-0.527
			c-1.485-0.664-2.424-1.721-2.814-3.165c-0.39-1.446-0.234-2.951,0.47-4.513l7.972-17.937l-18.758-41.439
			c-0.35-0.742-0.536-1.505-0.556-2.287c-0.021-0.781,0.107-1.524,0.38-2.227c0.273-0.703,0.674-1.339,1.203-1.906
			c0.527-0.565,1.161-1.025,1.904-1.377c0.74-0.351,1.494-0.527,2.257-0.527s1.484,0.139,2.168,0.41
			c0.684,0.273,1.31,0.684,1.876,1.23c0.566,0.549,1.026,1.192,1.378,1.935L562.207,172.668z"/>
		<path fill="#E67C22" d="M608.511,140.254v45.954c0,1.641-0.567,3.009-1.7,4.103c-1.133,1.095-2.521,1.642-4.162,1.642
			s-3.019-0.547-4.132-1.642c-1.112-1.094-1.67-2.462-1.67-4.103v-63.361c0-1.642,0.558-3.009,1.67-4.104
			c1.113-1.094,2.491-1.642,4.132-1.642h0.059c0.235,0,0.41,0.021,0.528,0.06c0.196,0,0.331,0.02,0.411,0.058l0.819,0.176
			c0.665,0.234,1.231,0.528,1.699,0.879l0.646,0.528c0.39,0.431,0.741,0.899,1.056,1.406l34.815,48.65V122.67
			c0-1.642,0.577-3.008,1.73-4.103c1.152-1.095,2.549-1.641,4.19-1.641c0.82,0,1.582,0.146,2.286,0.438
			c0.703,0.293,1.308,0.703,1.816,1.231c0.507,0.527,0.909,1.134,1.202,1.816c0.293,0.685,0.438,1.437,0.438,2.257v63.538
			c0,1.329-0.39,2.49-1.172,3.488c-0.781,0.995-1.758,1.67-2.931,2.021c-0.313,0.118-0.665,0.197-1.055,0.235h-0.645
			c-1.369,0-2.58-0.411-3.634-1.23l-0.587-0.469c-0.195-0.155-0.351-0.332-0.47-0.529L608.511,140.254z"/>
		<path fill="#E67C22" d="M664.516,153.824c1.466-3.38,3.466-6.34,6.008-8.88c2.539-2.54,5.509-4.543,8.91-6.01
			c3.398-1.464,7.013-2.197,10.842-2.197c3.869,0,7.494,0.733,10.874,2.197c3.379,1.467,6.33,3.47,8.851,6.01
			c2.52,2.54,4.514,5.5,5.979,8.88c1.464,3.379,2.197,7.004,2.197,10.873c0,3.868-0.733,7.493-2.197,10.872
			c-1.466,3.38-3.46,6.34-5.979,8.88c-2.521,2.541-5.472,4.543-8.851,6.008c-3.38,1.465-7.005,2.199-10.874,2.199
			c-3.829,0-7.443-0.734-10.842-2.199c-3.401-1.465-6.371-3.467-8.91-6.008c-2.542-2.54-4.542-5.5-6.008-8.88
			c-1.466-3.379-2.199-7.004-2.199-10.872C662.316,160.828,663.05,157.203,664.516,153.824z M675.328,170.998
			c0.859,1.973,2.023,3.692,3.49,5.156c1.463,1.467,3.183,2.629,5.156,3.489c1.973,0.859,4.074,1.29,6.301,1.29
			c2.267,0,4.387-0.431,6.361-1.29c1.972-0.86,3.692-2.022,5.156-3.489c1.466-1.464,2.619-3.184,3.459-5.156
			s1.261-4.075,1.261-6.301c0-2.268-0.421-4.376-1.261-6.331c-0.84-1.953-1.993-3.664-3.459-5.128
			c-1.464-1.466-3.185-2.619-5.156-3.459c-1.975-0.839-4.095-1.261-6.361-1.261c-2.227,0-4.328,0.422-6.301,1.261
			c-1.974,0.84-3.693,1.993-5.156,3.459c-1.467,1.464-2.631,3.175-3.49,5.128c-0.858,1.955-1.289,4.063-1.289,6.331
			C674.039,166.923,674.47,169.025,675.328,170.998z"/>
		<path fill="#E67C22" d="M743.029,136.855h5.039c1.682,0,3.079,0.547,4.191,1.641c1.114,1.095,1.671,2.462,1.671,4.104
			c0,1.681-0.557,3.087-1.671,4.22c-1.112,1.134-2.51,1.699-4.191,1.699h-5.039v37.689c0,1.641-0.557,3.009-1.672,4.103
			c-1.112,1.095-2.489,1.642-4.131,1.642c-1.641,0-3.028-0.547-4.162-1.642c-1.135-1.094-1.699-2.462-1.699-4.103v-37.689h-4.221
			c-0.82,0-1.582-0.155-2.286-0.469c-0.704-0.312-1.319-0.741-1.847-1.289c-0.526-0.548-0.947-1.173-1.261-1.877
			c-0.313-0.702-0.468-1.464-0.468-2.284c0-1.642,0.564-3.009,1.699-4.104c1.134-1.094,2.521-1.641,4.162-1.641h4.221V122.67
			c0-1.642,0.564-3.008,1.699-4.103c1.134-1.095,2.521-1.641,4.162-1.641c1.642,0,3.019,0.546,4.131,1.641
			c1.115,1.095,1.672,2.461,1.672,4.103V136.855z"/>
		<path fill="#E67C22" d="M760.494,121.527c0.353-0.8,0.82-1.494,1.407-2.081c0.586-0.586,1.27-1.045,2.052-1.378
			c0.78-0.33,1.62-0.497,2.52-0.497s1.738,0.167,2.52,0.497c0.781,0.333,1.467,0.792,2.052,1.378
			c0.587,0.587,1.056,1.281,1.408,2.081c0.351,0.801,0.526,1.651,0.526,2.55c0,0.899-0.176,1.739-0.526,2.52
			c-0.353,0.783-0.821,1.467-1.408,2.053c-0.585,0.586-1.271,1.045-2.052,1.376c-0.781,0.333-1.62,0.499-2.52,0.499
			s-1.739-0.166-2.52-0.499c-0.782-0.331-1.466-0.79-2.052-1.376c-0.587-0.586-1.055-1.27-1.407-2.053
			c-0.352-0.78-0.527-1.62-0.527-2.52C759.967,123.179,760.143,122.328,760.494,121.527z M772.334,186.149
			c0,1.642-0.556,3.019-1.67,4.131c-1.113,1.115-2.491,1.672-4.133,1.672c-0.782,0-1.535-0.146-2.257-0.44
			c-0.724-0.292-1.348-0.702-1.876-1.231c-0.527-0.526-0.947-1.143-1.26-1.846c-0.313-0.702-0.468-1.464-0.468-2.285v-43.608
			c0-0.821,0.155-1.583,0.468-2.287c0.313-0.703,0.741-1.319,1.29-1.846c0.547-0.527,1.172-0.947,1.876-1.261
			c0.702-0.313,1.465-0.469,2.285-0.469s1.583,0.156,2.287,0.469c0.703,0.313,1.309,0.733,1.816,1.261
			c0.506,0.526,0.908,1.143,1.201,1.846c0.293,0.704,0.439,1.466,0.439,2.287V186.149z"/>
		<path fill="#E67C22" d="M790.094,126.48c0.938-2.266,2.207-4.2,3.81-5.803c1.601-1.603,3.497-2.843,5.686-3.722
			c2.188-0.881,4.552-1.358,7.092-1.437h0.703v0.059c1.563,0.078,2.862,0.606,3.899,1.583c1.033,0.977,1.552,2.266,1.552,3.867
			c0,0.744-0.138,1.446-0.409,2.11c-0.274,0.665-0.655,1.252-1.143,1.759c-0.49,0.509-1.066,0.929-1.729,1.26
			c-0.665,0.333-1.369,0.538-2.11,0.616h-0.06c-1.016,0-1.943,0.186-2.783,0.557c-0.841,0.371-1.574,0.879-2.199,1.524
			c-0.625,0.645-1.113,1.407-1.466,2.286c-0.35,0.879-0.527,1.807-0.527,2.784v2.931h5.394c1.68,0,3.087,0.547,4.221,1.641
			c1.133,1.095,1.699,2.462,1.699,4.104c0,1.681-0.566,3.087-1.699,4.22c-1.134,1.134-2.541,1.699-4.221,1.699h-5.394v37.454
			c0,0.82-0.156,1.593-0.468,2.315c-0.313,0.724-0.733,1.35-1.261,1.876c-0.527,0.527-1.143,0.947-1.847,1.261
			c-0.702,0.313-1.446,0.469-2.226,0.469c-0.821,0-1.584-0.155-2.288-0.469c-0.702-0.313-1.317-0.733-1.846-1.261
			c-0.527-0.526-0.946-1.152-1.261-1.876c-0.313-0.723-0.469-1.495-0.469-2.315v-37.454h-3.867c-0.82,0-1.583-0.155-2.287-0.469
			c-0.703-0.312-1.319-0.741-1.846-1.289c-0.527-0.548-0.938-1.173-1.231-1.877c-0.292-0.702-0.439-1.464-0.439-2.284
			c0-1.642,0.557-3.009,1.671-4.104c1.115-1.094,2.491-1.641,4.133-1.641h3.867v-3.049
			C788.744,131.111,789.193,128.669,790.094,126.48z M818.756,124.663c0-0.898,0.165-1.749,0.498-2.55
			c0.332-0.801,0.792-1.494,1.377-2.08c0.587-0.587,1.27-1.046,2.051-1.378c0.783-0.331,1.622-0.498,2.521-0.498
			c0.897,0,1.748,0.167,2.549,0.498c0.801,0.332,1.496,0.791,2.082,1.378c0.585,0.586,1.055,1.279,1.405,2.08
			c0.353,0.801,0.529,1.651,0.529,2.55c0,0.899-0.177,1.739-0.529,2.52c-0.351,0.782-0.82,1.467-1.405,2.053
			c-0.586,0.586-1.281,1.046-2.082,1.377c-0.801,0.332-1.651,0.499-2.549,0.499c-0.899,0-1.738-0.167-2.521-0.499
			c-0.781-0.331-1.464-0.791-2.051-1.377c-0.585-0.586-1.045-1.271-1.377-2.053C818.921,126.402,818.756,125.563,818.756,124.663z
			 M831.064,186.149c0,1.642-0.547,3.019-1.642,4.131c-1.094,1.115-2.462,1.672-4.103,1.672c-0.821,0-1.582-0.146-2.286-0.44
			c-0.704-0.292-1.33-0.702-1.876-1.231c-0.547-0.526-0.977-1.143-1.289-1.846c-0.313-0.702-0.469-1.464-0.469-2.285v-43.608
			c0-0.821,0.155-1.583,0.469-2.287c0.313-0.703,0.742-1.319,1.289-1.846c0.546-0.527,1.182-0.947,1.906-1.261
			c0.722-0.313,1.493-0.469,2.314-0.469c1.641,0,2.998,0.567,4.073,1.699c1.075,1.134,1.612,2.521,1.612,4.163V186.149z"/>
		<path fill="#E67C22" d="M851.403,164.579l-0.059,0.118l0.059,0.059c0,1.993,0.38,3.936,1.143,5.832
			c0.762,1.895,1.825,3.595,3.195,5.099c1.365,1.505,2.979,2.717,4.835,3.634c1.855,0.919,3.877,1.397,6.066,1.437
			c1.992,0.08,3.906-0.156,5.744-0.703c1.836-0.547,3.635-1.563,5.393-3.049c0.586-0.468,1.221-0.927,1.904-1.377
			c0.684-0.448,1.408-0.763,2.169-0.938c0.763-0.177,1.583-0.167,2.462,0.029c0.879,0.195,1.789,0.703,2.726,1.523
			c0.624,0.548,1.094,1.192,1.407,1.935c0.313,0.742,0.459,1.504,0.439,2.286c-0.021,0.782-0.206,1.573-0.558,2.374
			c-0.353,0.801-0.879,1.553-1.583,2.256c-2.383,2.462-5.236,4.329-8.558,5.598c-3.321,1.27-6.818,1.906-10.491,1.906
			c-3.908,0-7.572-0.714-10.99-2.141c-3.419-1.426-6.408-3.378-8.968-5.861c-2.561-2.48-4.581-5.412-6.066-8.791
			c-1.485-3.381-2.228-7.005-2.228-10.873v-0.059l0.059-0.117l-0.059-0.059c0-3.908,0.742-7.563,2.228-10.962
			s3.506-6.368,6.066-8.91c2.56-2.538,5.549-4.541,8.968-6.007c3.418-1.466,7.082-2.198,10.99-2.198
			c3.673,0,7.17,0.636,10.491,1.905s6.175,3.137,8.558,5.599c0.704,0.701,1.23,1.455,1.583,2.256
			c0.352,0.801,0.537,1.603,0.558,2.403c0.02,0.801-0.127,1.573-0.439,2.314c-0.313,0.742-0.783,1.388-1.407,1.936
			c-0.937,0.82-1.847,1.327-2.726,1.522c-0.879,0.196-1.699,0.196-2.462,0c-0.761-0.195-1.485-0.517-2.169-0.966
			c-0.684-0.448-1.318-0.909-1.904-1.378c-1.758-1.446-3.557-2.441-5.393-2.99c-1.838-0.547-3.752-0.801-5.744-0.762
			c-2.149,0.08-4.152,0.577-6.008,1.496c-1.857,0.917-3.468,2.129-4.835,3.634c-1.37,1.504-2.444,3.203-3.225,5.099
			C851.793,160.584,851.403,162.547,851.403,164.579z"/>
		<path fill="#E67C22" d="M893.957,164.697c0-3.869,0.733-7.494,2.197-10.873c1.466-3.38,3.468-6.34,6.01-8.88
			c2.538-2.54,5.507-4.543,8.908-6.01c3.399-1.464,7.014-2.197,10.842-2.197c3.83,0,7.426,0.724,10.786,2.17
			c3.36,1.445,6.301,3.428,8.821,5.948c2.521,2.521,4.523,5.461,6.009,8.821c1.483,3.361,2.246,6.956,2.286,10.785v21.511
			c0,0.82-0.157,1.593-0.47,2.315c-0.313,0.724-0.733,1.359-1.26,1.906c-0.528,0.546-1.164,0.978-1.905,1.289
			c-0.743,0.313-1.523,0.469-2.344,0.469c-1.564,0-2.863-0.514-3.898-1.544c-1.036-1.03-1.633-2.283-1.788-3.76
			c-2.306,1.866-4.826,3.334-7.562,4.402c-2.734,1.068-5.626,1.605-8.676,1.605c-3.828,0-7.442-0.734-10.842-2.199
			c-3.401-1.465-6.37-3.467-8.908-6.008c-2.542-2.54-4.544-5.5-6.01-8.88C894.69,172.19,893.957,168.565,893.957,164.697z
			 M905.621,164.726c0,2.232,0.43,4.337,1.291,6.313s2.025,3.698,3.493,5.167c1.469,1.468,3.192,2.633,5.167,3.493
			c1.979,0.862,4.082,1.293,6.314,1.293c2.271,0,4.393-0.431,6.371-1.293c1.975-0.86,3.698-2.025,5.167-3.493
			c1.468-1.469,2.621-3.19,3.464-5.167c0.841-1.977,1.263-4.081,1.263-6.313c0-2.271-0.422-4.383-1.263-6.341
			c-0.843-1.957-1.996-3.669-3.464-5.138c-1.469-1.468-3.192-2.623-5.167-3.465c-1.979-0.842-4.101-1.264-6.371-1.264
			c-2.232,0-4.336,0.422-6.314,1.264c-1.975,0.842-3.698,1.997-5.167,3.465c-1.468,1.469-2.632,3.181-3.493,5.138
			C906.051,160.343,905.621,162.455,905.621,164.726z"/>
		<path fill="#E67C22" d="M978.242,136.855h5.04c1.682,0,3.079,0.547,4.191,1.641c1.113,1.095,1.671,2.462,1.671,4.104
			c0,1.681-0.558,3.087-1.671,4.22c-1.112,1.134-2.51,1.699-4.191,1.699h-5.04v37.689c0,1.641-0.557,3.009-1.671,4.103
			c-1.112,1.095-2.49,1.642-4.131,1.642c-1.642,0-3.029-0.547-4.163-1.642c-1.134-1.094-1.699-2.462-1.699-4.103v-37.689h-4.22
			c-0.821,0-1.583-0.155-2.287-0.469c-0.702-0.312-1.318-0.741-1.845-1.289c-0.528-0.548-0.948-1.173-1.262-1.877
			c-0.313-0.702-0.469-1.464-0.469-2.284c0-1.642,0.566-3.009,1.699-4.104c1.134-1.094,2.522-1.641,4.163-1.641h4.22V122.67
			c0-1.642,0.565-3.008,1.699-4.103s2.521-1.641,4.163-1.641c1.641,0,3.019,0.546,4.131,1.641c1.114,1.095,1.671,2.461,1.671,4.103
			V136.855z"/>
		<path fill="#E67C22" d="M995.708,121.527c0.352-0.8,0.819-1.494,1.406-2.081c0.586-0.586,1.271-1.045,2.052-1.378
			c0.78-0.33,1.622-0.497,2.521-0.497s1.737,0.167,2.521,0.497c0.78,0.333,1.465,0.792,2.051,1.378
			c0.588,0.587,1.056,1.281,1.407,2.081c0.353,0.801,0.527,1.651,0.527,2.55c0,0.899-0.175,1.739-0.527,2.52
			c-0.352,0.783-0.819,1.467-1.407,2.053c-0.586,0.586-1.271,1.045-2.051,1.376c-0.783,0.333-1.622,0.499-2.521,0.499
			s-1.74-0.166-2.521-0.499c-0.781-0.331-1.466-0.79-2.052-1.376c-0.587-0.586-1.055-1.27-1.406-2.053
			c-0.353-0.78-0.528-1.62-0.528-2.52C995.18,123.179,995.355,122.328,995.708,121.527z M1007.547,186.149
			c0,1.642-0.556,3.019-1.67,4.131c-1.113,1.115-2.491,1.672-4.132,1.672c-0.782,0-1.534-0.146-2.256-0.44
			c-0.725-0.292-1.349-0.702-1.878-1.231c-0.526-0.526-0.946-1.143-1.258-1.846c-0.314-0.702-0.47-1.464-0.47-2.285v-43.608
			c0-0.821,0.155-1.583,0.47-2.287c0.312-0.703,0.74-1.319,1.288-1.846c0.547-0.527,1.173-0.947,1.876-1.261
			c0.703-0.313,1.465-0.469,2.286-0.469c0.819,0,1.582,0.156,2.286,0.469c0.703,0.313,1.31,0.733,1.816,1.261
			c0.507,0.526,0.909,1.143,1.202,1.846c0.294,0.704,0.438,1.466,0.438,2.287V186.149z"/>
		<path fill="#E67C22" d="M1018.067,153.824c1.466-3.38,3.468-6.34,6.01-8.88c2.538-2.54,5.509-4.543,8.908-6.01
			c3.399-1.464,7.014-2.197,10.843-2.197c3.869,0,7.493,0.733,10.874,2.197c3.379,1.467,6.331,3.47,8.851,6.01
			c2.521,2.54,4.513,5.5,5.979,8.88c1.465,3.379,2.198,7.004,2.198,10.873c0,3.868-0.733,7.493-2.198,10.872
			c-1.466,3.38-3.458,6.34-5.979,8.88c-2.52,2.541-5.472,4.543-8.851,6.008c-3.381,1.465-7.005,2.199-10.874,2.199
			c-3.829,0-7.443-0.734-10.843-2.199s-6.37-3.467-8.908-6.008c-2.542-2.54-4.544-5.5-6.01-8.88
			c-1.464-3.379-2.197-7.004-2.197-10.872C1015.87,160.828,1016.604,157.203,1018.067,153.824z M1028.882,170.998
			c0.859,1.973,2.022,3.692,3.488,5.156c1.465,1.467,3.185,2.629,5.157,3.489c1.973,0.859,4.074,1.29,6.301,1.29
			c2.267,0,4.387-0.431,6.36-1.29c1.972-0.86,3.692-2.022,5.157-3.489c1.467-1.464,2.618-3.184,3.459-5.156s1.26-4.075,1.26-6.301
			c0-2.268-0.419-4.376-1.26-6.331c-0.841-1.953-1.992-3.664-3.459-5.128c-1.465-1.466-3.186-2.619-5.157-3.459
			c-1.974-0.839-4.094-1.261-6.36-1.261c-2.227,0-4.328,0.422-6.301,1.261c-1.973,0.84-3.692,1.993-5.157,3.459
			c-1.466,1.464-2.629,3.175-3.488,5.128c-0.859,1.955-1.289,4.063-1.289,6.331C1027.593,166.923,1028.022,169.025,1028.882,170.998
			z"/>
		<path fill="#E67C22" d="M1129.637,163.816v22.509c0,1.641-0.559,3.01-1.678,4.103c-1.119,1.095-2.505,1.642-4.153,1.642
			c-1.65,0-3.036-0.546-4.153-1.639c-1.119-1.093-1.68-2.459-1.68-4.099v-22.477c-0.038-2.342-0.342-4.459-0.909-6.351
			c-0.565-1.893-1.386-3.514-2.462-4.859c-1.073-1.347-2.383-2.39-3.926-3.131c-1.544-0.741-3.293-1.113-5.247-1.113
			s-3.771,0.382-5.45,1.143s-3.126,1.825-4.338,3.19c-1.211,1.365-2.159,2.976-2.843,4.829c-0.684,1.853-1.026,3.854-1.026,6v22.593
			c0,1.64-0.556,3.017-1.67,4.128c-1.113,1.112-2.491,1.668-4.132,1.668c-0.782,0-1.534-0.146-2.256-0.44
			c-0.725-0.292-1.349-0.702-1.876-1.231c-0.528-0.526-0.948-1.143-1.26-1.846c-0.314-0.702-0.469-1.464-0.469-2.285v-43.608
			c0-0.821,0.154-1.583,0.469-2.287c0.312-0.703,0.74-1.319,1.289-1.846c0.547-0.527,1.173-0.947,1.877-1.261
			c0.701-0.313,1.463-0.469,2.284-0.469c0.819,0,1.582,0.158,2.286,0.472c0.704,0.314,1.31,0.736,1.816,1.266
			c0.507,0.532,0.909,1.15,1.202,1.856c0.294,0.707,0.438,1.474,0.438,2.297l0.015,0.826c2.112-2.043,4.44-3.663,6.983-4.86
			c2.543-1.198,5.203-1.798,7.98-1.798c3.402,0,6.514,0.685,9.331,2.052c2.817,1.368,5.222,3.253,7.218,5.656
			s3.55,5.255,4.666,8.558C1129.08,156.305,1129.637,159.91,1129.637,163.816z"/>
		<path fill="#E67C22" d="M1150.121,166.602c-2.208-0.957-4.182-2.07-5.921-3.342c-1.737-1.27-3.125-2.765-4.161-4.482
			c-1.036-1.72-1.553-3.751-1.553-6.097c0-2.462,0.537-4.689,1.611-6.683s2.5-3.683,4.279-5.069c1.778-1.387,3.83-2.462,6.154-3.225
			c2.325-0.762,4.738-1.143,7.24-1.143c1.641,0,3.319,0.168,5.039,0.502c1.72,0.333,3.36,0.825,4.924,1.473
			c1.563,0.648,2.971,1.465,4.222,2.447c1.249,0.983,2.206,2.143,2.871,3.478c0.548,1.14,0.742,2.208,0.586,3.207
			c-0.156,0.997-0.567,1.848-1.231,2.551c-0.703,0.782-1.583,1.318-2.637,1.612c-1.055,0.292-2.092,0.204-3.107-0.265
			c-0.819-0.585-1.602-1.162-2.344-1.729s-1.495-1.064-2.257-1.495c-0.762-0.429-1.563-0.78-2.404-1.056
			c-0.84-0.271-1.787-0.409-2.841-0.409c-2.385,0-4.378,0.449-5.979,1.348c-1.604,0.899-2.403,2.286-2.403,4.162
			c0,0.937,0.253,1.758,0.763,2.462c0.506,0.703,1.199,1.328,2.078,1.876c0.881,0.547,1.926,1.045,3.138,1.493
			c1.21,0.451,2.538,0.89,3.986,1.319c2.343,0.742,4.57,1.545,6.681,2.403c2.109,0.859,3.977,1.916,5.598,3.165
			c1.62,1.252,2.911,2.755,3.868,4.514c0.957,1.758,1.437,3.888,1.437,6.39c0,2.344-0.498,4.523-1.495,6.534
			c-0.997,2.014-2.374,3.762-4.132,5.247c-1.758,1.484-3.84,2.656-6.243,3.516s-5.012,1.291-7.825,1.291
			c-1.836,0-3.742-0.189-5.714-0.561c-1.974-0.374-3.869-0.962-5.686-1.769c-1.817-0.806-3.479-1.837-4.983-3.095
			c-1.503-1.258-2.725-2.771-3.662-4.54c-0.625-1.134-0.929-2.199-0.908-3.195c0.018-0.997,0.253-1.867,0.703-2.608
			c0.448-0.742,1.055-1.339,1.816-1.788c0.763-0.448,1.612-0.704,2.551-0.761c0.937-0.059,1.894,0.126,2.871,0.557
			c0.977,0.43,1.876,1.151,2.697,2.167c1.249,1.838,2.666,3.176,4.249,4.015c1.583,0.842,3.584,1.261,6.008,1.261
			c1.055,0,2.09-0.137,3.106-0.41c1.016-0.273,1.926-0.653,2.726-1.143c0.801-0.488,1.436-1.093,1.904-1.817
			c0.47-0.722,0.703-1.554,0.703-2.49c0-1.134-0.313-2.092-0.937-2.873c-0.625-0.781-1.408-1.437-2.345-1.963
			c-0.938-0.527-1.963-0.968-3.077-1.319c-1.115-0.353-2.16-0.683-3.136-0.996C1154.605,168.448,1152.33,167.559,1150.121,166.602z"
			/>
	</g>
</g>
</svg>
